<?xml version="1.0" encoding="utf-8" ?>
<svg xmlns="http://www.w3.org/2000/svg" xmlns:ev="http://www.w3.org/2001/xml-events" xmlns:xlink="http://www.w3.org/1999/xlink" baseProfile="full" height="100%" version="1.1" viewBox="0,-4,8.5,5" width="100%">
  <defs/>
  <path d="M 0 -2 L 1 -2" fill="none" stroke="orange" stroke-width="0.05" transform="translate(0,0)"/>
  <path d="M 0 -1 C 0.25 -1 0.25 0 0.5 0" fill="none" stroke="orange" stroke-width="0.05" transform="translate(0,0)"/>
  <path d="M 0 0 C 0.25 0 0.25 -1 0.5 -1" fill="none" stroke="orange" stroke-dasharray="0.4" stroke-width="0.05" transform="translate(0,0)"/>
  <path d="M 0.5 0 L 1 0" fill="none" stroke="orange" stroke-width="0.05" transform="translate(0,0)"/>
  <path d="M 0.5 0 L 1 0" fill="none" stroke="orange" stroke-width="0.05" transform="translate(0,0)"/>
  <path d="M 0.5 -1 L 1 -1" fill="none" stroke="orange" stroke-width="0.05" transform="translate(0,0)"/>
  <path d="M 0 0 L 1 0" fill="none" stroke="orange" stroke-width="0.05" transform="translate(1,0)"/>
  <path d="M 0 -2 C 0.25 -2 0.25 -1 0.5 -1" fill="none" stroke="orange" stroke-width="0.05" transform="translate(1,0)"/>
  <path d="M 0 -1 C 0.25 -1 0.25 -2 0.5 -2" fill="none" stroke="orange" stroke-dasharray="0.4" stroke-width="0.05" transform="translate(1,0)"/>
  <path d="M 0.5 -1 L 1 -1" fill="none" stroke="orange" stroke-width="0.05" transform="translate(1,0)"/>
  <path d="M 0.5 -1 L 1 -1" fill="none" stroke="orange" stroke-width="0.05" transform="translate(1,0)"/>
  <path d="M 0.5 -2 L 1 -2" fill="none" stroke="orange" stroke-width="0.05" transform="translate(1,0)"/>
  <path d="M 0 -2 L 1 -2" fill="none" stroke="orange" stroke-width="0.05" transform="translate(2,0)"/>
  <path d="M 0 -1 C 0.25 -1 0.25 0 0.5 0" fill="none" stroke="orange" stroke-width="0.05" transform="translate(2,0)"/>
  <path d="M 0 0 C 0.25 0 0.25 -1 0.5 -1" fill="none" stroke="orange" stroke-dasharray="0.4" stroke-width="0.05" transform="translate(2,0)"/>
  <path d="M 0.5 0 L 1 0" fill="none" stroke="orange" stroke-width="0.05" transform="translate(2,0)"/>
  <path d="M 0.5 0 L 1 0" fill="none" stroke="orange" stroke-width="0.05" transform="translate(2,0)"/>
  <path d="M 0.5 -1 L 1 -1" fill="none" stroke="orange" stroke-width="0.05" transform="translate(2,0)"/>
  <path d="M 0 0 L 1 0" fill="none" stroke="orange" stroke-width="0.05" transform="translate(3,0)"/>
  <path d="M 0 -2 C 0.25 -2 0.25 -1 0.5 -1" fill="none" stroke="orange" stroke-width="0.05" transform="translate(3,0)"/>
  <path d="M 0 -1 C 0.25 -1 0.25 -2 0.5 -2" fill="none" stroke="orange" stroke-dasharray="0.4" stroke-width="0.05" transform="translate(3,0)"/>
  <path d="M 0.5 -1 L 1 -1" fill="none" stroke="orange" stroke-width="0.05" transform="translate(3,0)"/>
  <path d="M 0.5 -1 L 1 -1" fill="none" stroke="orange" stroke-width="0.05" transform="translate(3,0)"/>
  <path d="M 0.5 -2 L 1 -2" fill="none" stroke="orange" stroke-width="0.05" transform="translate(3,0)"/>
  <path d="M 0 -2 L 1 -2" fill="none" stroke="orange" stroke-width="0.05" transform="translate(4,0)"/>
  <path d="M 0 -1 C 0.25 -1 0.25 0 0.5 0" fill="none" stroke="orange" stroke-width="0.05" transform="translate(4,0)"/>
  <path d="M 0 0 C 0.25 0 0.25 -1 0.5 -1" fill="none" stroke="orange" stroke-dasharray="0.4" stroke-width="0.05" transform="translate(4,0)"/>
  <path d="M 0.5 0 L 1 0" fill="none" stroke="orange" stroke-width="0.05" transform="translate(4,0)"/>
  <path d="M 0.5 0 L 1 0" fill="none" stroke="orange" stroke-width="0.05" transform="translate(4,0)"/>
  <path d="M 0.5 -1 L 1 -1" fill="none" stroke="orange" stroke-width="0.05" transform="translate(4,0)"/>
  <path d="M 0 0 L 1 0" fill="none" stroke="orange" stroke-width="0.05" transform="translate(5,0)"/>
  <path d="M 0 -2 C 0.25 -2 0.25 -1 0.5 -1" fill="none" stroke="orange" stroke-width="0.05" transform="translate(5,0)"/>
  <path d="M 0 -1 C 0.25 -1 0.25 -2 0.5 -2" fill="none" stroke="orange" stroke-dasharray="0.4" stroke-width="0.05" transform="translate(5,0)"/>
  <path d="M 0.5 -1 L 1 -1" fill="none" stroke="orange" stroke-width="0.05" transform="translate(5,0)"/>
  <path d="M 0.5 -1 L 1 -1" fill="none" stroke="orange" stroke-width="0.05" transform="translate(5,0)"/>
  <path d="M 0.5 -2 L 1 -2" fill="none" stroke="orange" stroke-width="0.05" transform="translate(5,0)"/>
  <path d="M 0 -2 L 1 -2" fill="none" stroke="orange" stroke-width="0.05" transform="translate(6,0)"/>
  <path d="M 0 -1 C 0.25 -1 0.25 0 0.5 0" fill="none" stroke="orange" stroke-width="0.05" transform="translate(6,0)"/>
  <path d="M 0 0 C 0.25 0 0.25 -1 0.5 -1" fill="none" stroke="orange" stroke-dasharray="0.4" stroke-width="0.05" transform="translate(6,0)"/>
  <path d="M 0.5 0 L 1 0" fill="none" stroke="orange" stroke-width="0.05" transform="translate(6,0)"/>
  <path d="M 0.5 0 L 1 0" fill="none" stroke="orange" stroke-width="0.05" transform="translate(6,0)"/>
  <path d="M 0.5 -1 L 1 -1" fill="none" stroke="orange" stroke-width="0.05" transform="translate(6,0)"/>
  <path d="M 0 0 L 1 0" fill="none" stroke="orange" stroke-width="0.05" transform="translate(7,0)"/>
  <path d="M 0 -2 C 0.25 -2 0.25 -1 0.5 -1" fill="none" stroke="orange" stroke-width="0.05" transform="translate(7,0)"/>
  <path d="M 0 -1 C 0.25 -1 0.25 -2 0.5 -2" fill="none" stroke="orange" stroke-dasharray="0.4" stroke-width="0.05" transform="translate(7,0)"/>
  <path d="M 0.5 -1 L 1 -1" fill="none" stroke="orange" stroke-width="0.05" transform="translate(7,0)"/>
  <path d="M 0.5 -1 L 1 -1" fill="none" stroke="orange" stroke-width="0.05" transform="translate(7,0)"/>
  <path d="M 0.5 -2 L 1 -2" fill="none" stroke="orange" stroke-width="0.05" transform="translate(7,0)"/>
</svg>
