<?xml version="1.0" encoding="utf-8" ?>
<svg baseProfile="full" height="100%" version="1.1" viewBox="0,-4,7,4" width="100%" xmlns="http://www.w3.org/2000/svg" xmlns:ev="http://www.w3.org/2001/xml-events" xmlns:xlink="http://www.w3.org/1999/xlink">
  <defs/>
  <path d="M 1 0 A 0.5 0.5 0 1 1 1 -1.0" fill="none" stroke="orange" stroke-width="0.05" transform="translate(0,0)"/>
  <path d="M 0 0 L 1 0" fill="none" stroke="orange" stroke-width="0.05" transform="translate(1,0)"/>
  <path d="M 0 -1 L 1 -1" fill="none" stroke="orange" stroke-width="0.05" transform="translate(1,0)"/>
  <path d="M 1 -2 A 0.5 0.5 0 1 1 1 -3.0" fill="none" stroke="orange" stroke-width="0.05" transform="translate(1,0)"/>
  <path d="M 0 0 L 1 0" fill="none" stroke="orange" stroke-width="0.05" transform="translate(2,0)"/>
  <path d="M 0 -3 L 1 -3" fill="none" stroke="orange" stroke-width="0.05" transform="translate(2,0)"/>
  <path d="M 0 -1 L 0.5 -1" fill="none" stroke="orange" stroke-width="0.05" transform="translate(2,0)"/>
  <path d="M 0 -2 L 0.5 -2" fill="none" stroke="orange" stroke-width="0.05" transform="translate(2,0)"/>
  <path d="M 0.5 -1 C 0.75 -1 0.75 -2 1 -2" fill="none" stroke="orange" stroke-width="0.05" transform="translate(2,0)"/>
  <path d="M 0.5 -2 C 0.75 -2 0.75 -1 1 -1" fill="none" stroke="orange" stroke-dasharray="0.4" stroke-width="0.05" transform="translate(2,0)"/>
  <path d="M 0 -2 L 1 -2" fill="none" stroke="orange" stroke-width="0.05" transform="translate(3,0)"/>
  <path d="M 0 -3 L 1 -3" fill="none" stroke="orange" stroke-width="0.05" transform="translate(3,0)"/>
  <path d="M 0 -1 C 0.25 -1 0.25 0 0.5 0" fill="none" stroke="orange" stroke-width="0.05" transform="translate(3,0)"/>
  <path d="M 0 0 C 0.25 0 0.25 -1 0.5 -1" fill="none" stroke="orange" stroke-dasharray="0.4" stroke-width="0.05" transform="translate(3,0)"/>
  <path d="M 0.5 0 L 1 0" fill="none" stroke="orange" stroke-width="0.05" transform="translate(3,0)"/>
  <path d="M 0.5 0 L 1 0" fill="none" stroke="orange" stroke-width="0.05" transform="translate(3,0)"/>
  <path d="M 0.5 -1 L 1 -1" fill="none" stroke="orange" stroke-width="0.05" transform="translate(3,0)"/>
  <path d="M 0 0 L 1 0" fill="none" stroke="orange" stroke-width="0.05" transform="translate(4,0)"/>
  <path d="M 0 -3 L 1 -3" fill="none" stroke="orange" stroke-width="0.05" transform="translate(4,0)"/>
  <path d="M 0 -1 L 0.5 -1" fill="none" stroke="orange" stroke-width="0.05" transform="translate(4,0)"/>
  <path d="M 0 -2 L 0.5 -2" fill="none" stroke="orange" stroke-width="0.05" transform="translate(4,0)"/>
  <path d="M 0.5 -1 C 0.75 -1 0.75 -2 1 -2" fill="none" stroke="orange" stroke-width="0.05" transform="translate(4,0)"/>
  <path d="M 0.5 -2 C 0.75 -2 0.75 -1 1 -1" fill="none" stroke="orange" stroke-dasharray="0.4" stroke-width="0.05" transform="translate(4,0)"/>
  <path d="M 0 -2 L 0.5 -2" fill="none" stroke="orange" stroke-width="0.05" transform="translate(5,0)"/>
  <path d="M 0.5 -2 C 0.75 -2 0.75 0 1 0" fill="none" stroke="orange" stroke-width="0.05" transform="translate(5,0)"/>
  <path d="M 0 -3 L 0.5 -3" fill="none" stroke="orange" stroke-width="0.05" transform="translate(5,0)"/>
  <path d="M 0.5 -3 C 0.75 -3 0.75 -1 1 -1" fill="none" stroke="orange" stroke-width="0.05" transform="translate(5,0)"/>
  <path d="M 0 0 A 0.5 0.5 0 1 0 0 -1.0" fill="none" stroke="orange" stroke-width="0.05" transform="translate(5,0)"/>
  <path d="M 0 0 A 0.5 0.5 0 1 0 0 -1.0" fill="none" stroke="orange" stroke-width="0.05" transform="translate(6,0)"/>
</svg>
